<?xml version="1.0" encoding="utf-8"?>
<!-- Generator: Adobe Illustrator 15.0.0, SVG Export Plug-In  -->
<!DOCTYPE svg PUBLIC "-//W3C//DTD SVG 1.1//EN" "http://www.w3.org/Graphics/SVG/1.1/DTD/svg11.dtd" [
	<!ENTITY ns_flows "http://ns.adobe.com/Flows/1.0/">
]>
<svg version="1.1"
	 xmlns="http://www.w3.org/2000/svg" xmlns:xlink="http://www.w3.org/1999/xlink" xmlns:a="http://ns.adobe.com/AdobeSVGViewerExtensions/3.0/"
	 x="0px" y="0px" width="596px" height="190px" viewBox="0 0 596 190" enable-background="new 0 0 596 190" xml:space="preserve">
<defs>
</defs>
<polygon fill="#0C419A" points="199.961,102.875 210.352,102.875 209.461,131.23 209.609,131.23 222.97,102.875 233.807,102.875 
	234.4,131.23 234.549,131.23 246.276,102.875 256.223,102.875 238.112,140.582 227.127,140.582 225.791,114.9 225.643,114.9 
	212.579,140.582 201.297,140.582 "/>
<path fill="#0C419A" d="M284.725,123.361c2.969-12.023,3.266-21.229-10.837-21.229c-13.806,0-17.22,8.76-19.446,19.15
	c-2.523,11.729-2.523,20.041,11.134,20.041c4.898,0,8.906-1.336,11.876-3.711c2.969-2.375,5.047-5.641,6.086-9.799h-10.688
	c-0.594,3.119-2.227,6.682-5.938,6.682c-4.603,0-3.414-6.682-2.375-11.135H284.725L284.725,123.361z M265.872,117.572
	c0.742-3.266,1.781-8.906,6.68-8.906c5.048,0,3.712,5.195,2.969,8.906H265.872"/>
<path fill="#0C419A" d="M320.798,114.752c1.484-6.828,0.891-12.619-12.32-12.619c-4.008,0-7.572,0.742-10.393,2.525
	c-2.82,1.781-4.898,4.602-5.789,9.203h10.245c0.594-2.969,1.484-5.789,5.195-5.789c3.859,0,3.711,2.375,3.117,5.492l-0.594,2.969
	c-9.799-0.148-19.448,0.445-22.12,12.766c-1.336,6.533,0.148,12.025,7.422,12.025c4.454,0,8.018-1.93,10.987-5.789h0.148
	l-0.594,5.047h9.797c0.297-2.375,0.445-4.75,0.891-6.977L320.798,114.752z M308.923,122.322c-0.891,4.156-1.633,12.471-7.869,12.471
	c-3.415,0-3.118-3.266-2.672-5.939C299.866,122.174,303.728,122.619,308.923,122.322"/>
<path fill="#0C419A" d="M325.993,102.875h4.307l1.336-5.938l11.578-4.75l-2.227,10.688h5.492l-1.336,6.533h-5.492l-4.305,20.188
	c-0.594,2.822-1.039,4.752,2.375,4.752c0.742,0,1.336,0,1.93-0.148l-1.336,6.531c-1.484,0.148-2.969,0.297-5.492,0.297
	c-9.057,0-9.057-6.086-8.463-8.313l4.9-23.158h-4.307L325.993,102.875z"/>
<path fill="#0C419A" d="M360.88,140.582l5.492-25.979c0.742-3.414,0.742-5.938-2.672-5.938c-3.266,0-4.453,2.672-5.195,5.938
	l-5.492,25.979h-10.541l11.432-53.738h10.539l-4.156,20.041h0.148c2.82-3.416,5.938-4.604,9.797-4.604
	c5.047,0,8.76,2.971,7.572,8.166l-6.385,30.135H360.88z"/>
<path fill="#0C419A" d="M411.353,123.361c2.969-12.023,3.266-21.229-10.838-21.229c-13.805,0-17.219,8.76-19.445,19.15
	c-2.523,11.729-2.523,20.041,11.133,20.041c4.898,0,8.906-1.336,11.877-3.711c2.969-2.375,5.047-5.641,6.086-9.799h-10.689
	c-0.594,3.119-2.227,6.682-5.938,6.682c-4.602,0-3.266-6.682-2.375-11.135H411.353L411.353,123.361z M392.499,117.572
	c0.742-3.266,1.781-8.906,6.68-8.906c5.049,0,3.713,5.195,2.969,8.906H392.499"/>
<path fill="#0C419A" d="M430.948,102.875l-1.041,4.9h0.148c2.822-4.307,6.682-5.643,10.986-5.643l-2.078,9.354
	c-9.057-0.594-10.393,4.75-11.135,8.461l-4.305,20.486h-10.539l8.016-37.559H430.948z"/>
<path fill="#0C419A" d="M454.55,106.736h0.148c2.822-3.416,5.939-4.604,9.799-4.604c5.047,0,8.758,2.971,7.57,8.166l-6.383,30.135
	h-10.541l5.494-25.979c0.742-3.414,0.742-5.938-2.672-5.938c-3.268,0-4.455,2.672-5.197,5.938l-5.492,25.979h-10.539l8.016-37.559
	h10.539L454.55,106.736z"/>
<path fill="#0C419A" d="M505.765,123.361c2.971-12.023,3.268-21.229-10.836-21.229c-13.807,0-17.221,8.76-19.447,19.15
	c-2.523,11.729-2.523,20.041,11.135,20.041c4.898,0,8.906-1.336,11.875-3.711s5.047-5.641,6.086-9.799H493.89
	c-0.594,3.119-2.227,6.682-5.938,6.682c-4.602,0-3.414-6.682-2.375-11.135H505.765L505.765,123.361z M486.913,117.572
	c0.742-3.266,1.781-8.906,6.68-8.906c5.047,0,3.711,5.195,2.969,8.906H486.913"/>
<polygon fill="#0C419A" points="511.704,102.875 522.095,102.875 521.204,131.23 521.353,131.23 534.565,102.875 545.55,102.875 
	546.144,131.23 546.292,131.23 558.021,102.875 567.966,102.875 549.854,140.582 538.722,140.582 537.386,114.9 537.237,114.9 
	524.173,140.582 513.04,140.582 "/>
<path fill="#0C419A" d="M574.646,128.557c-0.445,1.783-0.742,3.416-0.445,4.604s1.336,1.781,3.414,1.781s4.156-1.336,4.752-3.859
	c1.633-8.018-17.221-6.236-14.549-18.111c1.781-8.166,10.242-10.541,17.072-10.541c7.125,0,12.914,3.416,10.539,11.58h-10.242
	c0.594-2.672,0.594-4.156,0-4.898s-1.336-0.891-2.523-0.891c-2.377,0-3.861,1.484-4.455,4.008
	c-1.336,5.938,17.221,5.641,14.697,17.814c-1.336,6.531-7.867,11.43-16.479,11.43c-9.203,0-14.844-2.375-12.023-12.766h10.242
	V128.557z"/>
<path fill="#0C419A" d="M13.657,97.531L0,152.012l152.012,37.855l12.321-49.285h-14.845l17.813-71.701h14.845l7.72-31.025L37.854,0
	L20.634,68.881l0,0c0,0,8.759,35.33,9.501,38.152c1.188,4.305,1.633,9.055,1.633,10.688h0.297c0-1.484,0.594-6.383,1.633-10.688
	c1.337-5.197,9.501-38.152,9.501-38.152h16.626l9.501,38.301c1.188,4.305,1.633,9.055,1.633,10.688h0.297
	c0-1.484,0.594-6.383,1.633-10.688l9.649-38.301h14.251l-17.813,71.701H63.388L53.145,99.906c-1.039-4.453-1.484-9.055-1.484-10.688
	h-0.297c0,2.523-0.445,6.383-1.484,10.688l-10.095,40.527H24.197L13.657,97.531z M122.024,68.881c0,0,7.868,31.322,8.759,35.33
	c1.039,4.307,2.227,10.541,1.93,12.619h0.297l12.024-47.949h14.399l-17.813,71.701h-16.032c0,0-7.571-30.135-8.313-33.549
	c-1.484-5.791-3.266-14.104-2.672-16.924h-0.297l-12.618,50.473H87.288l17.813-71.701H122.024"/>
</svg>
